<svg width="15" height="15" viewBox="0 0 14 14" fill="none" xmlns="http://www.w3.org/2000/svg">
<path d="M6.1653 0C2.76585 0 0 2.76585 0 6.1653C0 9.56495 2.76585 12.3306 6.1653 12.3306C9.56495 12.3306 12.3306 9.56495 12.3306 6.1653C12.3306 2.76585 9.56495 0 6.1653 0ZM6.1653 11.1924C3.39338 11.1924 1.13821 8.93725 1.13821 6.16533C1.13821 3.39341 3.39338 1.13821 6.1653 1.13821C8.93722 1.13821 11.1924 3.39338 11.1924 6.1653C11.1924 8.93722 8.93722 11.1924 6.1653 11.1924Z" fill="#A4A4A4"/>
<path d="M13.832 13.0285L10.5691 9.76563C10.3468 9.54329 9.98674 9.54329 9.76441 9.76563C9.54207 9.98777 9.54207 10.3482 9.76441 10.5704L13.0273 13.8332C13.1384 13.9444 13.284 14 13.4296 14C13.5751 14 13.7208 13.9444 13.832 13.8332C14.0543 13.6111 14.0543 13.2506 13.832 13.0285Z" fill="#A4A4A4"/>
</svg>
